<svg width="335" height="68" viewBox="0 0 335 68" fill="none" xmlns="http://www.w3.org/2000/svg">
<path d="M3 64.6743C3 68.9463 22.439 51.6846 24.4815 48.8965C30.8776 40.1652 42.2461 14.9908 30.3333 6.67426C22.9981 1.55342 22.0367 11.1127 24.4815 16.5261C29.9084 28.5428 43.6825 18.0267 50.2593 14.0076C53.4719 12.0443 54.8316 9.41346 55.6296 5.82241C56.6351 1.29781 55.0605 15.0774 54.963 19.7113C54.8018 27.3668 55.2451 58.9451 41 56.5261C35.8601 55.6533 30.7167 44.3578 25.8148 44.9705C24.6957 45.1104 32.3765 51.2139 32.8518 51.4891C36.7398 53.74 40.0709 58.3598 45.0741 57.8595C51.7782 57.189 53.6071 52.5121 56.1111 47.3039C60.5792 38.0102 67.0847 37.3409 76.7407 37.3409C78.3128 37.3409 88.9768 37.2701 82.2963 35.7113C74.4769 33.8867 65.0509 47.6362 62.5555 53.415C60.033 59.2566 66.7741 69.1734 72.8518 63.5631C76.7815 59.9358 81.003 52.0328 81.5185 46.7483C81.7221 44.6611 82.3333 32.8899 82.3333 34.9705C82.3333 41.7302 80.3327 51.9326 84.4074 57.8594C87.6432 62.566 92.4576 57.8261 94.963 55.0076C100.039 49.2965 99.7656 42.5386 100.667 35.2298C101.09 31.7981 100.546 24.7976 102.074 31.0817C102.828 34.1829 106.53 40.8137 109.815 36.2298C113.368 31.2723 113.766 24.4318 113 35.6372C112.786 38.7707 109.466 52.1618 114.333 46.5261C118.25 41.9912 124.586 42.0673 129.222 38.8224C134.319 35.2549 116.958 46.3528 116.593 52.5631C116.231 58.7125 127.863 53.1217 129.556 51.2298C134.72 45.458 135.904 34.2983 136.333 26.8965C136.73 20.054 136.222 13.5052 134.333 6.89648C132.778 1.45342 131.82 18.0146 131.704 23.6743C131.513 32.9409 130.407 42.2797 130.407 51.5261C130.407 56.2365 131.455 53.0997 132.037 50.452C132.603 47.8796 135.366 32.6903 139.963 33.5261C141.894 33.8771 144.046 47.9933 144.852 50.0817C146.657 54.7629 147.294 45.9656 147.667 44.452C148.66 40.4221 149.124 35.9824 151 32.2298C151.385 31.4593 153.074 29.049 152.852 31.415C152.557 34.5591 150.241 45.6427 153 48.0076C156.525 51.0289 167.298 45.2353 169.63 41.9705C172.406 38.0834 175.602 29.6058 174.556 24.8224C173.156 18.4268 169.061 28.8502 168.704 30.378C168.005 33.3636 164.568 48.5427 168.407 49.8224C173.574 51.5444 179.667 43.0775 181.37 39.6372C184.111 34.1034 184.375 27.7596 185.519 21.7854C185.531 21.722 184.526 31.0301 184.852 34.0817C184.978 35.2678 186.665 43.8428 188.333 39.7113C190.405 34.5806 194.035 30.7849 195.333 25.3039C196.311 21.1739 197.402 17.3134 196.667 24.0817C196.243 27.9821 194.892 34.5658 197.963 37.6372C202.913 42.5871 214.661 32.3813 217.667 28.8224C223.707 21.6694 219.81 11.1205 211.148 8.82241C201.645 6.30124 190.414 11.1952 181.889 14.9706C174.503 18.2415 167.89 23.0055 160.296 25.8224C150.556 29.4359 140.352 30.4844 130.037 30.6372C122.017 30.756 89.6192 30.8743 103.407 14.0446C111.178 4.55968 123.875 -1.24812 133.963 6.8224C148.9 18.7722 163.808 30.1515 183.407 32.1187C233.352 37.1317 284.499 28.9388 331.667 12.6743" stroke="white" stroke-width="5" stroke-linecap="round"/>
</svg>
